HIERARCHY
ROOT Hips
{
	OFFSET 0.000000 97.167313 0.000000
	CHANNELS 6 Xposition Yposition Zposition Xrotation Yrotation Zrotation
	JOINT Spine
	{
		OFFSET 0.000000 13.784798 0.064400
		CHANNELS 3 Xrotation Yrotation Zrotation
		JOINT Spine1
		{
			OFFSET 0.000000 12.037903 0.404700
			CHANNELS 3 Xrotation Yrotation Zrotation
			JOINT Spine2
			{
				OFFSET 0.000000 17.795601 0.420200
				CHANNELS 3 Xrotation Yrotation Zrotation
				JOINT Neck
				{
					OFFSET 0.000000 39.131302 11.954600
					CHANNELS 3 Xrotation Yrotation Zrotation
					JOINT Head
					{
						OFFSET 0.000000 14.456192 15.627699
						CHANNELS 3 Xrotation Yrotation Zrotation
						JOINT HeadTop_End
						{
							OFFSET 0.000000 15.703506 7.603401
							CHANNELS 3 Xrotation Yrotation Zrotation
							End Site
							{
								OFFSET 0.000000 17.447403 0.000000
							}
						}
					}
				}
				JOINT LeftShoulder
				{
					OFFSET 17.399500 24.608795 1.168800
					CHANNELS 3 Xrotation Yrotation Zrotation
					JOINT LeftArm
					{
						OFFSET 18.980635 5.765305 1.818600
						CHANNELS 3 Xrotation Yrotation Zrotation
						JOINT LeftForeArm
						{
							OFFSET 49.290169 0.000000 0.000000
							CHANNELS 3 Xrotation Yrotation Zrotation
							JOINT LeftHand
							{
								OFFSET 31.562012 0.000000 0.000000
								CHANNELS 3 Xrotation Yrotation Zrotation
								JOINT LeftHandThumb1
								{
									OFFSET 6.133995 -4.388519 7.076070
									CHANNELS 3 Xrotation Yrotation Zrotation
									JOINT LeftHandThumb2
									{
										OFFSET 6.037666 -3.485840 3.485847
										CHANNELS 3 Xrotation Yrotation Zrotation
										JOINT LeftHandThumb3
										{
											OFFSET 6.496506 -3.750763 3.750761
											CHANNELS 3 Xrotation Yrotation Zrotation
											JOINT LeftHandThumb4
											{
												OFFSET 5.616882 -3.242905 3.242910
												CHANNELS 3 Xrotation Yrotation Zrotation
												End Site
												{
													OFFSET -1.254608 7.132141 0.375429
												}
											}
										}
									}
								}
								JOINT LeftHandPinky1
								{
									OFFSET 18.920792 -0.453171 -11.426712
									CHANNELS 3 Xrotation Yrotation Zrotation
									JOINT LeftHandPinky2
									{
										OFFSET 4.919586 0.000000 0.000000
										CHANNELS 3 Xrotation Yrotation Zrotation
										JOINT LeftHandPinky3
										{
											OFFSET 5.233047 0.000000 0.000000
											CHANNELS 3 Xrotation Yrotation Zrotation
											JOINT LeftHandPinky4
											{
												OFFSET 5.571716 0.000000 0.000000
												CHANNELS 3 Xrotation Yrotation Zrotation
												End Site
												{
													OFFSET -3.459808 4.342407 -0.466164
												}
											}
										}
									}
								}
								JOINT LeftHandRing1
								{
									OFFSET 22.726120 -0.094986 -6.500475
									CHANNELS 3 Xrotation Yrotation Zrotation
									JOINT LeftHandRing2
									{
										OFFSET 6.408615 0.000000 0.000000
										CHANNELS 3 Xrotation Yrotation Zrotation
										JOINT LeftHandRing3
										{
											OFFSET 6.150223 0.000000 0.000000
											CHANNELS 3 Xrotation Yrotation Zrotation
											JOINT LeftHandRing4
											{
												OFFSET 6.145386 0.000000 0.000000
												CHANNELS 3 Xrotation Yrotation Zrotation
												End Site
												{
													OFFSET -3.671402 4.923981 -0.202372
												}
											}
										}
									}
								}
								JOINT LeftHandMiddle1
								{
									OFFSET 23.373947 0.000000 0.000001
									CHANNELS 3 Xrotation Yrotation Zrotation
									JOINT LeftHandMiddle2
									{
										OFFSET 6.996567 0.000000 0.000000
										CHANNELS 3 Xrotation Yrotation Zrotation
										JOINT LeftHandMiddle3
										{
											OFFSET 7.015945 0.000000 0.000000
											CHANNELS 3 Xrotation Yrotation Zrotation
											JOINT LeftHandMiddle4
											{
												OFFSET 7.721573 0.000000 0.000000
												CHANNELS 3 Xrotation Yrotation Zrotation
												End Site
												{
													OFFSET -4.651108 6.158463 0.251582
												}
											}
										}
									}
								}
								JOINT LeftHandIndex1
								{
									OFFSET 21.310577 -0.490082 6.209344
									CHANNELS 3 Xrotation Yrotation Zrotation
									JOINT LeftHandIndex2
									{
										OFFSET 7.536453 0.000000 0.000000
										CHANNELS 3 Xrotation Yrotation Zrotation
										JOINT LeftHandIndex3
										{
											OFFSET 7.512344 0.000000 0.000000
											CHANNELS 3 Xrotation Yrotation Zrotation
											JOINT LeftHandIndex4
											{
												OFFSET 10.212402 0.000000 0.000001
												CHANNELS 3 Xrotation Yrotation Zrotation
												End Site
												{
													OFFSET -5.180801 8.690506 1.388433
												}
											}
										}
									}
								}
							}
						}
					}
				}
				JOINT RightShoulder
				{
					OFFSET -17.399500 24.608795 1.168800
					CHANNELS 3 Xrotation Yrotation Zrotation
					JOINT RightArm
					{
						OFFSET -18.980635 5.765305 1.818600
						CHANNELS 3 Xrotation Yrotation Zrotation
						JOINT RightForeArm
						{
							OFFSET -49.290169 0.000000 0.000000
							CHANNELS 3 Xrotation Yrotation Zrotation
							JOINT RightHand
							{
								OFFSET -31.562012 0.000000 0.000000
								CHANNELS 3 Xrotation Yrotation Zrotation
								JOINT RightHandThumb1
								{
									OFFSET -6.133995 -4.388519 7.076070
									CHANNELS 3 Xrotation Yrotation Zrotation
									JOINT RightHandThumb2
									{
										OFFSET -6.037666 -3.485840 3.485847
										CHANNELS 3 Xrotation Yrotation Zrotation
										JOINT RightHandThumb3
										{
											OFFSET -6.496506 -3.750763 3.750761
											CHANNELS 3 Xrotation Yrotation Zrotation
											JOINT RightHandThumb4
											{
												OFFSET -5.616882 -3.242905 3.242910
												CHANNELS 3 Xrotation Yrotation Zrotation
												End Site
												{
													OFFSET 1.254608 7.132141 0.375429
												}
											}
										}
									}
								}
								JOINT RightHandIndex1
								{
									OFFSET -21.310577 -0.490082 6.209344
									CHANNELS 3 Xrotation Yrotation Zrotation
									JOINT RightHandIndex2
									{
										OFFSET -7.536453 0.000000 0.000000
										CHANNELS 3 Xrotation Yrotation Zrotation
										JOINT RightHandIndex3
										{
											OFFSET -7.512344 0.000000 0.000000
											CHANNELS 3 Xrotation Yrotation Zrotation
											JOINT RightHandIndex4
											{
												OFFSET -10.212402 0.000000 0.000001
												CHANNELS 3 Xrotation Yrotation Zrotation
												End Site
												{
													OFFSET 5.180801 8.690506 1.388433
												}
											}
										}
									}
								}
								JOINT RightHandMiddle1
								{
									OFFSET -23.373947 0.000000 0.000001
									CHANNELS 3 Xrotation Yrotation Zrotation
									JOINT RightHandMiddle2
									{
										OFFSET -6.996567 0.000000 0.000000
										CHANNELS 3 Xrotation Yrotation Zrotation
										JOINT RightHandMiddle3
										{
											OFFSET -7.015945 0.000000 0.000000
											CHANNELS 3 Xrotation Yrotation Zrotation
											JOINT RightHandMiddle4
											{
												OFFSET -7.721573 0.000000 0.000000
												CHANNELS 3 Xrotation Yrotation Zrotation
												End Site
												{
													OFFSET 4.651108 6.158463 0.251582
												}
											}
										}
									}
								}
								JOINT RightHandRing1
								{
									OFFSET -22.726120 -0.094986 -6.500475
									CHANNELS 3 Xrotation Yrotation Zrotation
									JOINT RightHandRing2
									{
										OFFSET -6.408615 0.000000 0.000000
										CHANNELS 3 Xrotation Yrotation Zrotation
										JOINT RightHandRing3
										{
											OFFSET -6.150223 0.000000 0.000000
											CHANNELS 3 Xrotation Yrotation Zrotation
											JOINT RightHandRing4
											{
												OFFSET -6.145386 0.000000 0.000000
												CHANNELS 3 Xrotation Yrotation Zrotation
												End Site
												{
													OFFSET 3.671402 4.923981 -0.202372
												}
											}
										}
									}
								}
								JOINT RightHandPinky1
								{
									OFFSET -18.920792 -0.453171 -11.426712
									CHANNELS 3 Xrotation Yrotation Zrotation
									JOINT RightHandPinky2
									{
										OFFSET -4.919586 0.000000 0.000000
										CHANNELS 3 Xrotation Yrotation Zrotation
										JOINT RightHandPinky3
										{
											OFFSET -5.233047 0.000000 0.000000
											CHANNELS 3 Xrotation Yrotation Zrotation
											JOINT RightHandPinky4
											{
												OFFSET -5.571716 0.000000 0.000000
												CHANNELS 3 Xrotation Yrotation Zrotation
												End Site
												{
													OFFSET 3.459808 4.342407 -0.466164
												}
											}
										}
									}
								}
							}
						}
					}
				}
			}
		}
	}
	JOINT LeftUpLeg
	{
		OFFSET 19.899099 -7.885101 -3.429500
		CHANNELS 3 Xrotation Yrotation Zrotation
		JOINT LeftLeg
		{
			OFFSET 1.745560 -36.997807 10.304700
			CHANNELS 3 Xrotation Yrotation Zrotation
			JOINT LeftFoot
			{
				OFFSET -1.745558 -29.803308 -13.615400
				CHANNELS 3 Xrotation Yrotation Zrotation
				JOINT LeftToeBase
				{
					OFFSET 1.181900 -18.539904 15.226099
					CHANNELS 3 Xrotation Yrotation Zrotation
					JOINT LeftToe_End
					{
						OFFSET -0.863701 1.402801 16.534700
						CHANNELS 3 Xrotation Yrotation Zrotation
						End Site
						{
							OFFSET 0.000000 16.616566 0.000000
						}
					}
				}
			}
		}
	}
	JOINT RightUpLeg
	{
		OFFSET -19.899099 -7.885101 -3.429500
		CHANNELS 3 Xrotation Yrotation Zrotation
		JOINT RightLeg
		{
			OFFSET -1.745560 -36.997807 10.304700
			CHANNELS 3 Xrotation Yrotation Zrotation
			JOINT RightFoot
			{
				OFFSET 1.745558 -29.803308 -13.615400
				CHANNELS 3 Xrotation Yrotation Zrotation
				JOINT RightToeBase
				{
					OFFSET -1.181900 -18.539904 15.226099
					CHANNELS 3 Xrotation Yrotation Zrotation
					JOINT RightToe_End
					{
						OFFSET 0.863701 1.402801 16.534700
						CHANNELS 3 Xrotation Yrotation Zrotation
						End Site
						{
							OFFSET 0.000000 16.616566 0.000000
						}
					}
				}
			}
		}
	}
}
MOTION
Frames: 5
Frame Time: 0.033333
-2.034667 71.660149 0.205307 15.600569 -53.696792 12.206853 7.436576 3.691277 -3.545208 1.208981 1.421372 2.332872 0.209085 1.299694 1.057866 -1.852108 9.789348 -1.570084 -3.710345 23.673094 -4.987623 -0.000000 0.000001 -0.000000 -2.406751 -9.916545 -4.103455 -4.668990 -14.995294 -46.826930 -96.668084 -58.172762 -94.771743 0.029833 -0.377227 -3.261892 4.766510 -0.870677 -14.442462 15.732333 12.674838 8.828577 63.207056 -8.275018 4.266041 0.000000 0.000001 0.000000 -8.868652 8.263628 -85.753865 -0.047922 -0.066873 -74.105654 -0.018480 -0.051639 -48.548780 0.000000 0.000002 -0.000005 -4.480777 3.914184 -90.412525 -1.097253 -0.675696 -62.310723 -0.104344 1.185549 -72.505859 -0.000002 0.000004 0.000004 -5.483658 2.419530 -86.651010 -0.068341 -4.897277 -76.605517 1.509524 0.538129 -67.243294 -0.000000 -0.000000 0.000004 -3.610966 -7.817630 -81.262681 0.005169 -4.388535 -67.459067 1.852076 0.687173 -69.585824 -0.000001 0.000001 0.000001 -7.389381 -19.317718 2.803581 3.089080 2.300739 51.805113 -16.213167 73.878864 16.743089 -2.716593 27.655248 10.524487 24.918366 -21.323359 30.343027 9.041924 8.262107 -18.001799 -16.109848 -19.128877 -12.401652 0.000004 -0.000001 -0.000001 -0.070710 -3.035174 61.424171 0.006475 4.395143 66.609193 1.919194 -0.429132 59.456667 -0.000001 0.000000 -0.000001 -1.235395 -0.119458 68.274270 -0.077288 4.902840 84.501885 0.918984 -1.334263 32.710264 0.000001 0.000001 -0.000006 0.883167 -4.613458 79.192929 -0.717785 1.136491 73.255773 -0.065394 -1.198590 39.144378 -0.000001 0.000004 -0.000005 -3.944558 0.100025 86.764767 -0.029792 0.060136 54.415144 -0.007561 0.030598 25.829829 0.000001 0.000001 0.000002 -70.927560 18.166020 47.548761 43.414342 -16.212549 3.506851 11.500367 0.395676 -16.155040 -2.525217 -3.753838 4.098986 0.000000 0.000001 0.000000 -26.566615 -19.871459 -46.682314 36.656881 7.567795 -1.325502 -12.779870 -10.425912 38.823280 -1.369718 0.621648 -0.987367 0.000000 -0.000000 -0.000000 
-2.060822 71.564285 0.052840 15.392147 -53.367103 11.966538 7.503265 3.528449 -3.419963 1.224459 1.368934 2.339283 0.224960 1.247273 1.063300 -1.858555 9.625397 -1.437194 -3.884008 20.480819 -5.025894 -0.000001 -0.000000 -0.000000 -2.383460 -10.013288 -3.865952 -4.979935 -15.937685 -46.326072 -94.855461 -57.869249 -92.490891 0.026390 0.097285 -3.393108 4.766509 -0.870678 -14.442461 15.732337 12.674834 8.828575 63.207062 -8.275017 4.266040 -0.000000 0.000001 -0.000001 -8.868655 8.263627 -85.753865 -0.047917 -0.066877 -74.105654 -0.018476 -0.051640 -48.548776 0.000003 0.000001 -0.000004 -4.480778 3.914185 -90.412525 -1.097253 -0.675698 -62.310716 -0.104343 1.185547 -72.505859 -0.000000 0.000001 0.000002 -5.483659 2.419530 -86.651017 -0.068339 -4.897279 -76.605517 1.509523 0.538132 -67.243301 -0.000001 -0.000000 0.000004 -3.610971 -7.817631 -81.262681 0.005175 -4.388533 -67.459060 1.852075 0.687174 -69.585824 -0.000001 0.000001 0.000001 -7.369979 -19.314021 2.870244 2.641160 2.876050 51.557475 -19.350245 72.803164 19.659284 -2.214610 25.456405 9.501206 24.918359 -21.323367 30.343027 9.041923 8.262105 -18.001793 -16.109848 -19.128877 -12.401648 0.000003 -0.000002 0.000002 -0.070715 -3.035178 61.424171 0.006474 4.395138 66.609193 1.919194 -0.429131 59.456667 -0.000002 -0.000003 -0.000002 -1.235398 -0.119462 68.274264 -0.077290 4.902837 84.501885 0.918979 -1.334262 32.710264 -0.000001 0.000001 -0.000009 0.883166 -4.613462 79.192922 -0.717785 1.136492 73.255773 -0.065388 -1.198594 39.144381 -0.000000 0.000000 -0.000005 -3.944560 0.100022 86.764767 -0.029791 0.060135 54.415151 -0.007559 0.030594 25.829832 -0.000002 -0.000001 0.000004 -70.311996 17.362407 46.936493 43.199294 -15.656187 3.490019 11.752560 0.373978 -16.631815 -2.525217 -3.753836 4.098986 -0.000000 0.000001 0.000001 -27.457617 -20.913011 -47.223501 37.068970 8.589110 -1.279458 -13.156094 -10.351799 38.164973 -1.369718 0.621648 -0.987367 -0.000000 -0.000000 -0.000000 
-2.040545 71.433983 -0.081295 14.984067 -52.612531 11.529379 7.603105 3.334137 -3.311136 1.250776 1.305682 2.346915 0.251741 1.183997 1.069762 -1.844402 9.495058 -1.330163 -4.259036 17.090062 -5.178810 0.000000 -0.000001 0.000000 -2.359045 -10.117464 -3.618481 -5.350197 -17.161028 -46.175064 -93.674569 -57.530055 -90.960505 -0.057028 0.363014 -3.546301 4.766511 -0.870672 -14.442455 15.732333 12.674834 8.828579 63.207056 -8.275018 4.266041 0.000001 0.000001 -0.000001 -8.868655 8.263626 -85.753865 -0.047920 -0.066877 -74.105654 -0.018478 -0.051639 -48.548783 -0.000001 0.000003 -0.000007 -4.480778 3.914185 -90.412519 -1.097254 -0.675697 -62.310716 -0.104346 1.185546 -72.505853 -0.000000 0.000000 0.000003 -5.483662 2.419528 -86.651010 -0.068340 -4.897277 -76.605523 1.509523 0.538132 -67.243301 0.000002 0.000000 0.000006 -3.610966 -7.817632 -81.262674 0.005176 -4.388536 -67.459067 1.852072 0.687176 -69.585824 -0.000002 0.000001 0.000001 -7.375570 -19.388180 2.840579 2.193924 3.209307 51.328506 -22.506278 71.556429 22.547860 -1.743502 23.165367 8.356727 24.918367 -21.323359 30.343027 9.041925 8.262108 -18.001800 -16.109846 -19.128882 -12.401651 -0.000001 -0.000002 0.000003 -0.070713 -3.035173 61.424171 0.006474 4.395142 66.609193 1.919192 -0.429135 59.456660 -0.000000 0.000002 -0.000001 -1.235396 -0.119461 68.274270 -0.077291 4.902836 84.501885 0.918982 -1.334263 32.710264 -0.000001 0.000000 -0.000008 0.883169 -4.613459 79.192922 -0.717785 1.136490 73.255766 -0.065394 -1.198590 39.144374 0.000002 0.000001 -0.000001 -3.944560 0.100023 86.764774 -0.029793 0.060136 54.415147 -0.007564 0.030593 25.829825 -0.000001 0.000002 0.000002 -69.927866 16.509109 45.967877 42.974136 -15.235948 3.505228 12.223409 0.297317 -16.883669 -2.525216 -3.753837 4.098987 0.000000 -0.000001 0.000000 -28.017634 -22.212923 -47.882409 37.425492 9.403449 -1.222015 -13.604592 -10.376009 37.707108 -1.369718 0.621647 -0.987367 -0.000000 -0.000000 -0.000000 
-1.958518 71.262688 -0.191854 14.288858 -51.245827 10.833513 7.793722 3.098438 -3.181988 1.301335 1.226036 2.356326 0.302844 1.104323 1.077669 -1.940203 9.853806 -1.173107 -5.145188 15.241461 -5.975997 -0.000001 0.000001 0.000000 -2.333932 -10.218731 -3.374856 -5.925093 -18.796802 -46.230378 -92.458659 -57.376642 -89.363518 -0.174568 0.179826 -4.079859 4.766510 -0.870678 -14.442459 15.732333 12.674831 8.828575 63.207062 -8.275016 4.266040 0.000000 -0.000000 -0.000001 -8.868652 8.263626 -85.753865 -0.047922 -0.066877 -74.105661 -0.018475 -0.051639 -48.548776 0.000000 0.000002 0.000001 -4.480776 3.914187 -90.412525 -1.097252 -0.675697 -62.310716 -0.104346 1.185549 -72.505859 -0.000003 0.000003 0.000005 -5.483658 2.419530 -86.651004 -0.068342 -4.897278 -76.605523 1.509524 0.538130 -67.243301 0.000000 -0.000000 0.000008 -3.610968 -7.817628 -81.262674 0.005167 -4.388536 -67.459067 1.852073 0.687175 -69.585824 0.000000 0.000000 -0.000001 -7.394606 -19.550523 2.760691 1.881853 2.968905 51.127948 -25.524909 70.505297 25.248711 -1.358037 20.820397 7.147545 24.918364 -21.323357 30.343030 9.041925 8.262104 -18.001799 -16.109845 -19.128879 -12.401650 0.000002 0.000002 0.000002 -0.070715 -3.035176 61.424178 0.006472 4.395146 66.609200 1.919197 -0.429138 59.456660 -0.000001 0.000001 -0.000003 -1.235397 -0.119460 68.274270 -0.077291 4.902837 84.501885 0.918982 -1.334262 32.710264 0.000001 -0.000001 -0.000004 0.883168 -4.613459 79.192929 -0.717785 1.136491 73.255773 -0.065391 -1.198592 39.144378 0.000002 -0.000004 -0.000000 -3.944558 0.100023 86.764767 -0.029792 0.060141 54.415147 -0.007558 0.030593 25.829829 0.000001 -0.000005 0.000003 -69.870089 15.663582 44.483291 42.689683 -15.049489 3.563074 13.025762 0.141152 -16.797675 -2.525216 -3.753839 4.098987 -0.000000 -0.000001 0.000001 -28.044916 -23.873758 -48.685845 37.674675 9.893643 -1.145009 -14.157932 -10.552895 37.563284 -1.369718 0.621647 -0.987367 -0.000000 -0.000000 -0.000000 
-1.813619 71.063942 -0.282048 13.508008 -49.370352 10.103022 8.076131 3.039348 -3.043117 1.378549 1.189828 2.359804 0.380358 1.068255 1.080387 -2.124900 10.934788 -1.054676 -6.475024 16.409550 -6.953131 0.000000 -0.000001 0.000000 -2.308989 -10.302032 -3.154422 -7.024765 -21.378980 -46.650226 -90.291296 -57.624728 -86.585543 -0.248860 -0.394411 -5.096364 4.766510 -0.870672 -14.442457 15.732335 12.674834 8.828577 63.207062 -8.275014 4.266040 0.000000 -0.000000 0.000000 -8.868654 8.263627 -85.753858 -0.047922 -0.066872 -74.105654 -0.018479 -0.051639 -48.548776 0.000002 0.000006 -0.000001 -4.480777 3.914187 -90.412525 -1.097254 -0.675699 -62.310716 -0.104346 1.185546 -72.505866 -0.000001 0.000000 0.000002 -5.483660 2.419529 -86.651004 -0.068340 -4.897277 -76.605517 1.509522 0.538132 -67.243301 0.000001 -0.000001 0.000001 -3.610966 -7.817631 -81.262667 0.005171 -4.388535 -67.459067 1.852075 0.687174 -69.585824 -0.000003 0.000001 0.000001 -7.415447 -19.834789 2.653278 1.862271 1.664444 51.049394 -29.201617 70.202125 28.531379 -1.047969 18.386941 5.957330 24.918374 -21.323361 30.343030 9.041923 8.262109 -18.001795 -16.109850 -19.128879 -12.401650 0.000000 -0.000001 0.000002 -0.070707 -3.035172 61.424171 0.006471 4.395140 66.609193 1.919189 -0.429141 59.456667 -0.000002 0.000000 0.000004 -1.235389 -0.119459 68.274270 -0.077292 4.902838 84.501885 0.918978 -1.334260 32.710264 -0.000000 0.000001 -0.000006 0.883173 -4.613460 79.192929 -0.717785 1.136489 73.255773 -0.065387 -1.198592 39.144374 0.000000 0.000002 -0.000005 -3.944552 0.100023 86.764767 -0.029792 0.060140 54.415140 -0.007558 0.030594 25.829827 -0.000001 -0.000003 0.000004 -70.071034 14.910802 42.516046 42.275176 -15.017354 3.646482 14.121044 -0.074883 -16.448791 -2.525216 -3.753839 4.098986 0.000000 -0.000004 0.000000 -27.708570 -25.778976 -49.624432 37.804738 10.089037 -1.048767 -14.748672 -10.852811 37.711394 -1.369718 0.621648 -0.987367 -0.000000 -0.000000 -0.000000 
